PathFileType	4	(X/Y/Z)	C:/Users/opensim2020/Desktop/walking_exp_matlab/subject01_walking05_straight_01.trc	
DataRate	CameraRate	NumFrames	NumMarkers	Units	OrigDataRate	OrigDataStartFrame	OrigNumFrames	
100.00	100.00	4	43	mm	100.00	814	239	
Frame#	Time	LFHD			RFHD			LBHD			RBHD			C7			T10			CLAV			STRN			RBAK			LSHO			LUPA			LELB			LFRM			LWRA			LWRB			LFIN			RSHO			RUPA			RELB			RFRM			RWRA			RWRB			RFIN			LASI			RASI			LPSI			RPSI			LTHI			LKNE			LTIB			LANK			LHEE			LTOE			RTHI			RKNE			RTIB			RANK			RHEE			RTOE			*39			*40			*41			*42			
		X1	Y1	Z1	X2	Y2	Z2	X3	Y3	Z3	X4	Y4	Z4	X5	Y5	Z5	X6	Y6	Z6	X7	Y7	Z7	X8	Y8	Z8	X9	Y9	Z9	X10	Y10	Z10	X11	Y11	Z11	X12	Y12	Z12	X13	Y13	Z13	X14	Y14	Z14	X15	Y15	Z15	X16	Y16	Z16	X17	Y17	Z17	X18	Y18	Z18	X19	Y19	Z19	X20	Y20	Z20	X21	Y21	Z21	X22	Y22	Z22	X23	Y23	Z23	X24	Y24	Z24	X25	Y25	Z25	X26	Y26	Z26	X27	Y27	Z27	X28	Y28	Z28	X29	Y29	Z29	X30	Y30	Z30	X31	Y31	Z31	X32	Y32	Z32	X33	Y33	Z33	X34	Y34	Z34	X35	Y35	Z35	X36	Y36	Z36	X37	Y37	Z37	X38	Y38	Z38	X39	Y39	Z39	X40	Y40	Z40	X41	Y41	Z41	X42	Y42	Z42	X43	Y43	Z43	

60	0.590	-1121.10938	-564.07355	1676.28613	-1007.65942	-556.56067	1689.21838	-1114.39185	-662.97290	1599.02368	-994.03021	-657.55811	1610.37561	-1070.74304	-670.45990	1432.88342	-1057.71631	-708.10986	1142.12158	-1056.99878	-526.18311	1366.18433	-1054.36816	-485.20709	1209.26782	-992.47223	-730.56165	1242.75464	-1221.37402	-575.34882	1389.86633	-1308.65320	-582.32776	1205.76440	-1314.07300	-570.08289	1053.68140	-1332.97595	-495.45761	964.01440	-1310.49243	-381.54254	887.83148	-1332.64551	-429.86658	860.74939	-1342.78186	-360.15079	816.19537	-910.13519	-599.58850	1398.23523	-812.02600	-674.72321	1203.69556	-805.58472	-679.73431	1078.50574	-771.36646	-657.22302	960.82104	-781.84729	-576.56232	843.34521	-748.65802	-624.48779	844.45526	-745.34424	-587.19659	767.77246	-1148.89404	-537.24316	927.61572	-933.29321	-549.80334	942.51141	-1104.29248	-725.61469	943.32861	-958.46454	-730.85498	948.53705	-1192.50403	-579.77924	593.13953	-1172.73621	-596.92224	459.78247	-1180.60242	-660.24060	280.79074	-1128.62122	-711.16309	68.55237	-1079.75525	-762.64563	41.42610	-1124.96033	-564.97076	31.37467	-855.65186	-508.63644	625.87512	-872.92651	-461.08661	472.09082	-874.96613	-545.96021	315.47870	-926.58618	-608.05688	120.79960	-987.10168	-652.57373	90.00539	-901.98376	-487.86932	49.89570	-1031.55664	-577.66833	1716.57446	-3101.96460	1973.20544	1023.99908	-3138.33252	2013.13049	1022.19257			 
61	0.600	-1120.13452	-556.08276	1676.06091	-1006.78455	-548.62030	1688.70898	-1113.63281	-654.92462	1598.74060	-993.21667	-649.47681	1609.89807	-1070.21716	-662.09473	1432.53149	-1057.49854	-700.09143	1141.87183	-1056.40234	-517.81427	1365.76257	-1054.22290	-477.10471	1208.81824	-992.38391	-722.42102	1242.32068	-1220.94946	-567.07727	1389.75842	-1308.42090	-573.38025	1205.88110	-1314.46155	-559.94922	1053.84216	-1333.38062	-483.51691	965.57697	-1311.09119	-367.91058	891.98804	-1333.02625	-415.74728	863.76526	-1343.38794	-345.11377	820.73108	-909.65308	-591.17676	1397.47717	-811.90839	-667.12518	1203.06091	-805.61456	-672.59991	1078.01367	-771.43530	-650.78583	960.18054	-781.65973	-570.79230	842.28833	-748.60974	-619.20490	843.58862	-745.14954	-582.39673	766.83929	-1148.87561	-529.93079	926.84851	-933.22894	-541.71313	942.25336	-1103.94531	-718.04199	942.97614	-958.06567	-722.93524	948.24231	-1192.40259	-575.72076	592.66162	-1173.00745	-594.40332	459.48334	-1180.76636	-658.80243	280.83472	-1128.66309	-710.98914	69.00946	-1079.84021	-762.80420	42.13769	-1124.98108	-564.91309	31.34507	-855.33533	-499.86432	625.87317	-873.10846	-452.06256	472.16345	-873.25610	-528.61298	311.47000	-923.57098	-579.72382	113.24097	-983.60541	-623.48785	80.46078	-899.95233	-455.94095	48.84610	-1030.59924	-569.65210	1716.23743	-3102.61523	1972.83289	1024.62207	-3138.49731	2013.13452	1022.35950			 
62	0.610	-1119.13428	-548.07690	1675.72766	-1005.61908	-540.55487	1688.39990	-1112.73328	-646.83228	1598.36255	-992.32635	-641.46039	1609.34204	-1069.69006	-654.13434	1432.25623	-1057.22632	-691.99817	1141.52332	-1055.93066	-509.50473	1365.25000	-1053.99878	-468.93982	1208.29236	-992.29114	-714.32452	1241.79285	-1220.37866	-558.75397	1389.61389	-1308.14600	-564.38892	1205.96082	-1314.77393	-549.77478	1053.98462	-1333.74719	-471.68488	967.11005	-1311.48657	-354.55872	895.99835	-1333.22217	-401.82034	866.70227	-1343.76978	-330.41257	825.12543	-909.13489	-583.32318	1396.85461	-811.77301	-659.37170	1202.38843	-805.58130	-665.43060	1077.42615	-771.38086	-644.19769	959.47894	-781.45123	-564.91504	841.17944	-748.65601	-613.33038	842.78650	-744.84576	-576.64453	765.82471	-1148.84326	-522.59802	925.98413	-933.12225	-533.46033	941.86761	-1103.43555	-710.51801	942.61182	-957.58893	-714.93018	947.87848	-1192.32703	-571.54114	592.27472	-1173.08679	-591.75653	459.07309	-1180.83813	-657.05566	280.87567	-1128.63586	-710.76404	69.48001	-1079.89490	-762.59442	42.77417	-1124.90979	-564.89703	31.25360	-855.25781	-491.79214	625.34515	-873.65619	-443.52097	471.81134	-871.65436	-511.88443	308.09906	-920.42200	-551.65082	106.32237	-979.82904	-594.02740	71.30668	-897.98743	-423.88068	48.82937	-1029.51013	-561.73981	1715.79993	-3102.15649	1973.09277	1024.10107	-3138.41968	2013.09192	1022.21509			 
63	0.620	-1118.08911	-540.08313	1675.37903	-1004.53131	-532.59106	1687.86035	-1111.82312	-638.70892	1597.89563	-991.50983	-633.65399	1608.83887	-1069.02673	-645.53748	1431.64624	-1056.73438	-683.91498	1141.11987	-1054.90015	-501.33218	1364.66455	-1053.72681	-460.75668	1207.71460	-992.04083	-706.02985	1241.24487	-1219.69946	-550.42908	1389.34863	-1307.82007	-555.39728	1205.98828	-1315.06128	-539.73047	1054.13098	-1333.92603	-459.93253	968.60168	-1311.61133	-341.34613	899.78033	-1333.29565	-388.13022	869.64075	-1344.17261	-315.79434	829.80896	-908.52087	-574.85315	1396.18787	-811.49188	-651.61731	1201.70703	-805.48285	-658.12750	1076.73413	-771.31543	-637.56683	958.77429	-781.20563	-558.88641	840.04004	-748.44769	-607.00342	841.89221	-744.54547	-571.06067	764.85291	-1148.79907	-515.34692	925.13770	-932.96576	-525.17792	941.38818	-1102.78662	-702.95215	942.21307	-956.94647	-706.67908	947.60828	-1192.08679	-567.27795	591.86517	-1173.23181	-588.77423	458.82047	-1180.81848	-655.17279	281.03574	-1128.58459	-710.50275	69.97849	-1079.71985	-762.50031	43.44082	-1124.93860	-564.90265	31.22917	-855.13330	-484.55267	624.43823	-873.70844	-435.53177	471.72580	-869.91217	-495.47189	305.31900	-916.84943	-523.34149	100.28124	-975.42767	-564.17377	62.56494	-896.00623	-392.01489	49.71356	-1028.39563	-553.78381	1715.29211	-3102.33105	1973.04553	1023.98022	-3138.66138	2013.06897	1022.24597			 
